/* XPM */
static char *xpm___0[] = {
/* columns rows colors chars-per-pixel */
"32 32 5 1 ",
"  c #222034",
". c #663931",
"X c #8F563B",
"o c #FBF236",
"O c white",
/* pixels */
"................................",
"..XXXX..XXXX..XXXX..XXXX..XXXX..",
".X                            X.",
".X oooooooooooooooooooooooooo X.",
".. ooOOOOoooooooooooooooooooo ..",
".X oOoooooooooooooooooooooooo X.",
".X oOoooooooooooooooooooooooo X.",
".X oOoooooooooooooooooooooooo X.",
".. oOoooooooooooooooooooooooo ..",
".X oOoooooooooooooooooooooooo X.",
".X oooooooooooooooooooooooooo X.",
".X oooooooooooooooooooooooooo X.",
".X oooooooooooooooooooooooooo X.",
".. oooooooooooooooooooooooooo ..",
".X oooooooooooooooooooooooooo X.",
".X oooooooooooooooooooooooooo X.",
".X oooooooooooooooooooooooooo X.",
".X oooooooooooooooooooooooooo X.",
".. oooooooooooooooooooooooooo ..",
".X oooooooooooooooooooooooooo X.",
".X oooooooooooooooooooooooooo X.",
".X oooooooooooooooooooooooooo X.",
".X ooooooooooooooooooooooooOo X.",
".. ooooooooooooooooooooooooOo ..",
".X ooooooooooooooooooooooooOo X.",
".X ooooooooooooooooooooooooOo X.",
".X ooooooooooooooooooooooooOo X.",
".. ooooooooooooooooooooOOOOoo ..",
".X oooooooooooooooooooooooooo X.",
".X                            X.",
"..XXXX..XXXX..XXXX..XXXX..XXXX..",
"................................"
};
