/* XPM */
static char *xpm___1[] = {
/* columns rows colors chars-per-pixel */
"32 32 6 1 ",
"  c black",
". c #222034",
"X c #663931",
"o c #AC3232",
"O c #8F563B",
"+ c white",
/* pixels */
"XXXXXXXXXXXXXXXXXXXXXXXXXXXXXXXX",
"XXOOOOXXOOOOXXOOOOXXOOOOXXOOOOXX",
"XO............................OX",
"XO.++++++++++++++++++++++++++.OX",
"XX.++++++++++++++++++++++++++.XX",
"XO.++++ooooooooooooooooo ++++.OX",
"XO.++++ooooooooooooooooo ++++.OX",
"XO.++++ooooooooooooooooo ++++.OX",
"XX.++++ooo               ++++.XX",
"XO.++++ooo ++++++++++++++++++.OX",
"XO.++++ooo ++++++++++++++++++.OX",
"XO.++++ooo ++++++++++++++++++.OX",
"XO.++++ooo ++++++++++++++++++.OX",
"XX.++++ooo ++++++++++++++++++.XX",
"XO.++++ooooooooooooooooo ++++.OX",
"XO.++++ooooooooooooooooo ++++.OX",
"XO.++++ooooooooooooooooo ++++.OX",
"XO.++++ooo               ++++.OX",
"XX.++++ooo ++++++++++++++++++.XX",
"XO.++++ooo ++++++++++++++++++.OX",
"XO.++++ooo ++++++++++++++++++.OX",
"XO.++++ooo ++++++++++++++++++.OX",
"XO.++++ooo ++++++++++++++++++.OX",
"XX.++++ooooooooooooooooo ++++.XX",
"XO.++++ooooooooooooooooo ++++.OX",
"XO.++++ooooooooooooooooo ++++.OX",
"XO.++++ooooooooooooooooo ++++.OX",
"XX.+++++                 ++++.XX",
"XO.++++++++++++++++++++++++++.OX",
"XO............................OX",
"XXOOOOXXOOOOXXOOOOXXOOOOXXOOOOXX",
"XXXXXXXXXXXXXXXXXXXXXXXXXXXXXXXX"
};
