/* XPM */
static char *xpm___2[] = {
/* columns rows colors chars-per-pixel */
"32 32 3 1 ",
"  c #663931",
". c #8F563B",
"X c #EEC39A",
/* pixels */
"                                ",
"  ....  ....  ....  ....  ....  ",
" .XXXX. XXXX. XXXX .XXXX .XXXX. ",
" .    .     .      .     .    . ",
"  ............................  ",
" .X.     .   . XX .   .     .X. ",
" .X. XXXX. XX. XX .XX .XXXX .X. ",
" .X.     .   . XX .   .     .X. ",
"  ............................  ",
" .    .     .      .     .    . ",
" . XXX. XXXX. XXXX .XXXX .XXX . ",
" . XXX. XXXX. XXXX .XXXX .XXX . ",
" .    .     .      .     .    . ",
"  ............................  ",
" .X.     .   .    .   .     .X. ",
" .X. XXXX. XX. XX .XX .XXXX .X. ",
" .X. XXXX. XX. XX .XX .XXXX .X. ",
" .X.     .   .    .   .     .X. ",
"  ............................  ",
" .    .     .      .     .    . ",
" . XXX. XXXX. XXXX .XXXX .XXX . ",
" . XXX. XXXX. XXXX .XXXX .XXX . ",
" .    .     .      .     .    . ",
"  ............................  ",
" .X.     .   . XX .   .     .X. ",
" .X. XXXX. XX. XX .XX .XXXX .X. ",
" .X.     .   . XX .   .     .X. ",
"  ............................  ",
" .    .     .      .     .    . ",
" .XXXX. XXXX. XXXX .XXXX .XXXX. ",
"  ....  ....  ....  ....  ....  ",
"                                "
};
