/* XPM */
static char *xpm___3[] = {
/* columns rows colors chars-per-pixel */
"32 32 5 1 ",
"  c black",
". c #663931",
"X c #8F563B",
"o c #5B6EE1",
"O c #EEC39A",
/* pixels */
"................................",
"..XXXX..OOOO..OOOO..OOOO..XXXX..",
".XOOOOX.OOOOX.OOOO.XOOOO.XOOOOX.",
".X....oooooooooooooooooooo ...X.",
"..XXXXoooooooooooooooooooo XXX..",
".XOX..oooooooooooooooooooo .XOX.",
".XOX.Oooo              ooo .XOX.",
".XOX..ooo ...X.OO.X...Xooo .XOX.",
"..XXXXooo XXXXXXXXXXXXXooo XXX..",
".X....ooo ..X......X...ooo ...X.",
".X.OOOooo OOX.OOOO.XOOOooo OO.X.",
".X.OOOooo OOX.OOOO.XOOOooo OO.X.",
".X....ooo ..X......X...ooo ...X.",
"..XXXXooo XXXXXXXXXXXXXooo XXX..",
".XOX..oooooooooooooooooooo .XOX.",
".XOX.Ooooooooooooooooooooo .XOX.",
".XOX.Ooooooooooooooooooooo .XOX.",
".XOX..ooo                  .XOX.",
"..XXXXooo XXXXXXXXXXXXXXXXXXXX..",
".X....ooo ..X......X.....X....X.",
".X.OOOooo OOX.OOOO.XOOOO.XOOO.X.",
".X.OOOooo OOX.OOOO.XOOOO.XOOO.X.",
".X....ooo ..X......X.....X....X.",
"..XXXXooo XXXXXXXXXXXXXXXXXXXX..",
".XOX..ooo ...X.OO.X...X.....XOX.",
".XOX.Oooo .OOX.OO.XOO.XOOOO.XOX.",
".XOX..ooo ...X.OO.X...X.....XOX.",
"..XXXXooo XXXXXXXXXXXXXXXXXXXX..",
".X....    ..X.OOOO.X.....X....X.",
".XOOOOX.OOOOX.OOOO.XOOOO.XOOOOX.",
"..XXXX..OOOO..OOOO..OOOO..XXXX..",
"................................"
};
