/* XPM */
static char *xpm___4[] = {
/* columns rows colors chars-per-pixel */
"32 32 4 1 ",
"  c #663931",
". c #8F563B",
"X c #6ABE30",
"o c #37946E",
/* pixels */
"oooooooXXXXXXXXXXXXXXXXXXXoooooo",
"ooooXXXXXXXXXXXXXXXXXXXXXXXXoooo",
"ooXXXXX   XXXXXXXXXXXX   XXXXXoo",
"ooXXX        XXXXXX        XXXoo",
"oXXX                        XXXo",
"oXX    ..                    XXo",
"oXX   .                      XXo",
"XX   ..            ..         XX",
"XX   ..     .        ...      XX",
"       .    ...      ..         ",
"            ..   ..             ",
"            ..   ..             ",
"      ...    ... ..             ",
"     ....      ....         ..  ",
"     .. .                 ....  ",
"     ...                  ....  ",
"                           .    ",
"                                ",
"                                ",
"        ......                  ",
"         .....                  ",
"         .                      ",
"               ...              ",
"              .....             ",
"    ..        .....   ....      ",
"    ....       ...    ....      ",
"  .......              ...      ",
"  .......                       ",
"    ....                        ",
"                                ",
"                                ",
"                                "
};
